HIERARCHY
ROOT Hips
{
	OFFSET 0.000000 121.760803 0.000000
	CHANNELS 6 Xposition Yposition Zposition Xrotation Yrotation Zrotation 
	JOINT Spine
	{
		OFFSET 0.072000 7.257294 -0.789700
		CHANNELS 3 Xrotation Yrotation Zrotation
		JOINT Spine1
		{
			OFFSET 0.000000 12.508769 -0.658067
			CHANNELS 3 Xrotation Yrotation Zrotation
			JOINT Spine1_split
			{
				OFFSET 0.000000 12.508769 -0.658067
				CHANNELS 3 Xrotation Yrotation Zrotation
				JOINT Spine2
				{
					OFFSET 0.000000 12.508769 -0.658067
					CHANNELS 3 Xrotation Yrotation Zrotation
					JOINT Neck
					{
						OFFSET 0.000000 14.033295 7.520400
						CHANNELS 3 Xrotation Yrotation Zrotation
						JOINT Head
						{
							OFFSET 0.000000 8.198502 5.703100
							CHANNELS 3 Xrotation Yrotation Zrotation
							JOINT HeadTop_End
							{
								OFFSET 0.000000 17.760803 13.332701
								CHANNELS 3 Xrotation Yrotation Zrotation
								End Site
								{
									OFFSET 0.000000 0.000000 0.000000
								}
							}
						}
					}
					JOINT LeftShoulder
					{
						OFFSET 6.292450 5.785301 -0.669000
						CHANNELS 3 Xrotation Yrotation Zrotation
						JOINT LeftShoulder_split
						{
							OFFSET 6.292450 5.785301 -0.669000
							CHANNELS 3 Xrotation Yrotation Zrotation
							JOINT LeftArm
							{
								OFFSET 13.907140 -6.093903 1.965100
								CHANNELS 3 Xrotation Yrotation Zrotation
								JOINT LeftForeArm
								{
									OFFSET 34.140198 0.000000 0.000000
									CHANNELS 3 Xrotation Yrotation Zrotation
									JOINT LeftHand
									{
										OFFSET 40.960209 0.000000 0.000000
										CHANNELS 3 Xrotation Yrotation Zrotation
										JOINT LeftHandThumb1
										{
											OFFSET 10.006996 -7.170425 9.573125
											CHANNELS 3 Xrotation Yrotation Zrotation
											JOINT LeftHandThumb2
											{
												OFFSET 1.835007 -1.059448 1.059443
												CHANNELS 3 Xrotation Yrotation Zrotation
												JOINT LeftHandThumb3
												{
													OFFSET 2.112267 -1.219513 1.219518
													CHANNELS 3 Xrotation Yrotation Zrotation
													JOINT LeftHandThumb4
													{
														OFFSET 4.843811 -2.796570 2.796576
														CHANNELS 3 Xrotation Yrotation Zrotation
														End Site
														{
															OFFSET 0.000000 0.000000 0.000000
														}
													}
												}
											}
										}
										JOINT LeftHandIndex1
										{
											OFFSET 18.389847 -0.922348 4.596882
											CHANNELS 3 Xrotation Yrotation Zrotation
											JOINT LeftHandIndex2
											{
												OFFSET 4.711273 0.000000 0.000000
												CHANNELS 3 Xrotation Yrotation Zrotation
												JOINT LeftHandIndex3
												{
													OFFSET 2.886131 0.000000 0.000000
													CHANNELS 3 Xrotation Yrotation Zrotation
													JOINT LeftHandIndex4
													{
														OFFSET 6.145912 0.000000 0.000000
														CHANNELS 3 Xrotation Yrotation Zrotation
														End Site
														{
															OFFSET 0.000000 0.000000 0.000000
														}
													}
												}
											}
										}
										JOINT LeftHandMiddle1
										{
											OFFSET 18.013008 0.000000 0.000000
											CHANNELS 3 Xrotation Yrotation Zrotation
											JOINT LeftHandMiddle2
											{
												OFFSET 4.946693 0.000000 0.000000
												CHANNELS 3 Xrotation Yrotation Zrotation
												JOINT LeftHandMiddle3
												{
													OFFSET 3.342232 0.000000 0.000000
													CHANNELS 3 Xrotation Yrotation Zrotation
													JOINT LeftHandMiddle4
													{
														OFFSET 4.461754 0.000000 0.000000
														CHANNELS 3 Xrotation Yrotation Zrotation
														End Site
														{
															OFFSET 0.000000 0.000000 0.000000
														}
													}
												}
											}
										}
										JOINT LeftHandRing1
										{
											OFFSET 15.849892 -0.102921 -4.126150
											CHANNELS 3 Xrotation Yrotation Zrotation
											JOINT LeftHandRing2
											{
												OFFSET 3.527054 0.000000 0.000000
												CHANNELS 3 Xrotation Yrotation Zrotation
												JOINT LeftHandRing3
												{
													OFFSET 2.961098 0.000000 0.000000
													CHANNELS 3 Xrotation Yrotation Zrotation
													JOINT LeftHandRing4
													{
														OFFSET 4.927200 0.000000 0.000000
														CHANNELS 3 Xrotation Yrotation Zrotation
														End Site
														{
															OFFSET 0.000000 0.000000 0.000000
														}
													}
												}
											}
										}
										JOINT LeftHandPinky1
										{
											OFFSET 12.791824 -0.832031 -6.799156
											CHANNELS 3 Xrotation Yrotation Zrotation
											JOINT LeftHandPinky2
											{
												OFFSET 3.327133 0.000000 0.000000
												CHANNELS 3 Xrotation Yrotation Zrotation
												JOINT LeftHandPinky3
												{
													OFFSET 3.014900 0.000000 0.000000
													CHANNELS 3 Xrotation Yrotation Zrotation
													JOINT LeftHandPinky4
													{
														OFFSET 5.847786 0.000000 0.000000
														CHANNELS 3 Xrotation Yrotation Zrotation
														End Site
														{
															OFFSET 0.000000 0.000000 0.000000
														}
													}
												}
											}
										}
									}
								}
							}
						}
					}
					JOINT RightShoulder
					{
						OFFSET -6.292450 5.785301 -0.669000
						CHANNELS 3 Xrotation Yrotation Zrotation
						JOINT RightShoulder_split
						{
							OFFSET -6.292450 5.785301 -0.669000
							CHANNELS 3 Xrotation Yrotation Zrotation
							JOINT RightArm
							{
								OFFSET -13.907140 -6.093903 1.965100
								CHANNELS 3 Xrotation Yrotation Zrotation
								JOINT RightForeArm
								{
									OFFSET -34.140198 0.000000 0.000000
									CHANNELS 3 Xrotation Yrotation Zrotation
									JOINT RightHand
									{
										OFFSET -40.960209 0.000000 0.000000
										CHANNELS 3 Xrotation Yrotation Zrotation
										JOINT RightHandThumb1
										{
											OFFSET -10.007050 -7.170456 9.573117
											CHANNELS 3 Xrotation Yrotation Zrotation
											JOINT RightHandThumb2
											{
												OFFSET -1.835007 -1.059448 1.059443
												CHANNELS 3 Xrotation Yrotation Zrotation
												JOINT RightHandThumb3
												{
													OFFSET -2.112267 -1.219513 1.219518
													CHANNELS 3 Xrotation Yrotation Zrotation
													JOINT RightHandThumb4
													{
														OFFSET -4.843834 -2.796585 2.796590
														CHANNELS 3 Xrotation Yrotation Zrotation
														End Site
														{
															OFFSET 0.000000 0.000000 0.000000
														}
													}
												}
											}
										}
										JOINT RightHandIndex1
										{
											OFFSET -18.389870 -0.922424 4.596786
											CHANNELS 3 Xrotation Yrotation Zrotation
											JOINT RightHandIndex2
											{
												OFFSET -4.711273 0.000000 0.000000
												CHANNELS 3 Xrotation Yrotation Zrotation
												JOINT RightHandIndex3
												{
													OFFSET -2.886131 0.000000 0.000000
													CHANNELS 3 Xrotation Yrotation Zrotation
													JOINT RightHandIndex4
													{
														OFFSET -6.145920 0.000000 0.000000
														CHANNELS 3 Xrotation Yrotation Zrotation
														End Site
														{
															OFFSET 0.000000 0.000000 0.000000
														}
													}
												}
											}
										}
										JOINT RightHandMiddle1
										{
											OFFSET -18.013008 0.000000 0.000000
											CHANNELS 3 Xrotation Yrotation Zrotation
											JOINT RightHandMiddle2
											{
												OFFSET -4.946693 0.000000 0.000000
												CHANNELS 3 Xrotation Yrotation Zrotation
												JOINT RightHandMiddle3
												{
													OFFSET -3.342232 0.000000 0.000000
													CHANNELS 3 Xrotation Yrotation Zrotation
													JOINT RightHandMiddle4
													{
														OFFSET -4.461754 0.000000 0.000000
														CHANNELS 3 Xrotation Yrotation Zrotation
														End Site
														{
															OFFSET 0.000000 0.000000 0.000000
														}
													}
												}
											}
										}
										JOINT RightHandRing1
										{
											OFFSET -15.849876 -0.102936 -4.126237
											CHANNELS 3 Xrotation Yrotation Zrotation
											JOINT RightHandRing2
											{
												OFFSET -3.527054 0.000000 0.000000
												CHANNELS 3 Xrotation Yrotation Zrotation
												JOINT RightHandRing3
												{
													OFFSET -2.961098 0.000000 0.000000
													CHANNELS 3 Xrotation Yrotation Zrotation
													JOINT RightHandRing4
													{
														OFFSET -4.927200 0.000000 0.000000
														CHANNELS 3 Xrotation Yrotation Zrotation
														End Site
														{
															OFFSET 0.000000 0.000000 0.000000
														}
													}
												}
											}
										}
										JOINT RightHandPinky1
										{
											OFFSET -12.791786 -0.832077 -6.799222
											CHANNELS 3 Xrotation Yrotation Zrotation
											JOINT RightHandPinky2
											{
												OFFSET -3.327133 0.000000 0.000000
												CHANNELS 3 Xrotation Yrotation Zrotation
												JOINT RightHandPinky3
												{
													OFFSET -3.014900 0.000000 0.000000
													CHANNELS 3 Xrotation Yrotation Zrotation
													JOINT RightHandPinky4
													{
														OFFSET -5.847786 0.000000 0.000000
														CHANNELS 3 Xrotation Yrotation Zrotation
														End Site
														{
															OFFSET 0.000000 0.000000 0.000000
														}
													}
												}
											}
										}
									}
								}
							}
						}
					}
				}
			}
		}
	}
	JOINT LeftUpLeg
	{
		OFFSET 13.026900 -6.336304 -1.092800
		CHANNELS 3 Xrotation Yrotation Zrotation
		JOINT LeftLeg
		{
			OFFSET 0.524474 -46.096886 9.782700
			CHANNELS 3 Xrotation Yrotation Zrotation
			JOINT LeftFoot
			{
				OFFSET -0.524474 -53.427422 -12.948200
				CHANNELS 3 Xrotation Yrotation Zrotation
				JOINT LeftToeBase
				{
					OFFSET 0.192200 -14.009700 16.364100
					CHANNELS 3 Xrotation Yrotation Zrotation
					JOINT LeftToe_End
					{
						OFFSET -1.784700 -0.561700 9.474800
						CHANNELS 3 Xrotation Yrotation Zrotation
						End Site
						{
							OFFSET 0.000000 0.000000 0.000000
						}
					}
				}
			}
		}
	}
	JOINT RightUpLeg
	{
		OFFSET -12.883000 -6.336304 -1.092800
		CHANNELS 3 Xrotation Yrotation Zrotation
		JOINT RightLeg
		{
			OFFSET -0.524587 -46.096825 9.782800
			CHANNELS 3 Xrotation Yrotation Zrotation
			JOINT RightFoot
			{
				OFFSET 0.524587 -53.427383 -12.948300
				CHANNELS 3 Xrotation Yrotation Zrotation
				JOINT RightToeBase
				{
					OFFSET -0.192200 -14.009700 16.364100
					CHANNELS 3 Xrotation Yrotation Zrotation
					JOINT RightToe_End
					{
						OFFSET 1.784700 -0.561700 9.474800
						CHANNELS 3 Xrotation Yrotation Zrotation
						End Site
						{
							OFFSET 0.000000 0.000000 0.000000
						}
					}
				}
			}
		}
	}
}
MOTION
Frames: 5
Frame Time: 0.016667
-2.530460 95.668373 2.407396 19.418066 -43.809766 6.508112 0.806042 6.572375 -0.586231 -1.588675 4.492985 -2.192221 0.000000 0.000000 0.000000 -1.597446 -0.195611 1.993553 12.118095 6.829916 -4.433335 -0.737341 20.027399 8.229673 -0.000002 0.000000 -0.000000 3.544241 4.756013 -11.623016 0.000000 0.000000 0.000000 -54.038831 -33.116435 -50.381555 -0.000153 -81.882384 -0.000178 -58.768382 25.992608 38.870344 -14.557462 10.837979 12.229964 0.749479 -4.258147 13.305417 -10.783708 -23.179377 -4.132405 0.000002 -0.000000 0.000000 -0.809529 2.578153 -31.496444 3.095874 5.163790 -61.866959 0.503787 2.378652 -23.913136 -0.000001 0.000000 0.000000 -2.430843 1.729223 -41.460922 2.952345 5.084721 -60.259931 1.321765 3.707977 -39.227853 -0.000001 -0.000001 -0.000001 -6.054130 -0.166587 -49.857587 3.046245 5.137042 -61.313939 0.351715 2.001097 -19.935148 0.000001 0.000001 0.000001 -8.298305 -6.522652 -38.520156 2.848769 5.024402 -59.084401 0.876776 3.084709 -31.727509 0.000000 0.000000 -0.000000 -14.733700 2.115982 -4.463086 0.000000 0.000000 0.000000 72.337564 138.834031 -52.653536 -0.000007 29.080695 0.000010 -49.752457 -7.371296 -31.498746 8.377125 -4.904147 11.021995 21.620195 -18.183905 -18.379214 -0.702859 -49.821210 -32.535121 0.000002 -0.000001 0.000003 0.558924 -4.406582 25.436659 1.653018 -3.560365 49.799104 1.737730 -3.630056 51.149227 -0.000000 0.000001 0.000001 10.969811 -12.875579 52.800815 6.387583 -4.324408 111.833679 0.247372 -1.499118 18.739124 -0.000001 0.000001 -0.000002 3.705076 -7.151340 57.622447 5.328210 -4.608686 98.293430 1.627361 -3.538512 49.383992 -0.000000 0.000000 0.000000 0.474815 -5.172980 58.987672 3.194315 -4.421934 71.674141 1.771416 -3.656901 51.679561 -0.000001 0.000000 0.000000 -72.168469 -9.456615 14.613822 46.750179 -7.011050 4.805210 19.009776 -1.221123 -11.897397 0.000002 -0.000002 0.000003 0.000001 0.000001 0.000001 -40.076364 -6.223586 -17.400797 54.760007 -8.181796 4.043056 -15.192236 -20.742308 20.837422 -1.117555 0.000008 -0.000003 0.000000 0.000000 0.000000 
-2.545402 96.054237 -1.417435 20.299927 -43.851549 6.811395 1.025664 6.606592 -0.011149 -1.410113 4.462651 -2.203679 0.000000 0.000000 0.000000 -1.413470 -0.229859 1.985881 11.799604 6.804087 -4.313540 -1.333352 19.778517 8.281248 0.000002 -0.000001 -0.000001 3.460878 4.416667 -11.409040 0.000000 0.000000 0.000000 -54.824617 -33.117770 -50.523425 -0.000226 -81.497052 -0.000264 -58.132341 25.445112 38.283989 -14.557457 10.837982 12.229967 0.749479 -4.258146 13.305418 -10.783713 -23.179386 -4.132404 0.000001 0.000000 -0.000001 -0.809527 2.578153 -31.496441 3.095872 5.163792 -61.866959 0.503789 2.378655 -23.913131 -0.000001 -0.000001 -0.000000 -2.430843 1.729222 -41.460928 2.952345 5.084720 -60.259931 1.321765 3.707977 -39.227853 0.000000 0.000000 0.000001 -6.054126 -0.166588 -49.857584 3.046244 5.137041 -61.313946 0.351713 2.001097 -19.935152 0.000000 -0.000000 -0.000004 -8.298302 -6.522652 -38.520156 2.848769 5.024405 -59.084401 0.876775 3.084712 -31.727513 -0.000001 -0.000001 0.000002 -14.724954 2.110620 -4.402639 0.000000 0.000000 0.000000 72.362002 139.310574 -53.074606 0.000005 28.936923 -0.000004 -48.762438 -6.817479 -31.328555 8.377126 -4.904148 11.021996 21.620195 -18.183903 -18.379213 -0.702857 -49.821217 -32.535125 0.000000 -0.000000 0.000001 0.558924 -4.406583 25.436658 1.653018 -3.560366 49.799107 1.737731 -3.630054 51.149227 -0.000000 -0.000000 0.000002 10.969811 -12.875578 52.800815 6.387585 -4.324411 111.833686 0.247373 -1.499118 18.739124 -0.000000 0.000000 0.000000 3.705075 -7.151340 57.622440 5.328208 -4.608687 98.293430 1.627361 -3.538511 49.383989 0.000001 0.000000 -0.000001 0.474815 -5.172980 58.987672 3.194315 -4.421935 71.674147 1.771416 -3.656900 51.679557 -0.000001 -0.000000 0.000001 -74.394099 -7.094430 12.773250 53.407985 -7.849819 2.785718 14.202904 -0.868264 -13.493527 0.000013 -0.000018 -0.000000 -0.000001 0.000002 0.000000 -42.747282 -6.602110 -16.115437 55.698116 -8.413752 5.436230 -15.357151 -20.796437 17.805955 -2.251961 -0.000006 0.000003 0.000000 0.000000 -0.000000 
-2.493663 96.703964 -5.308487 21.595375 -44.440148 7.413299 1.108901 7.013457 0.518995 -1.310866 4.621466 -2.233294 0.000000 0.000000 0.000000 -1.314409 -0.079136 1.955557 11.539367 6.719176 -4.205102 -1.771503 19.427324 8.399848 -0.000002 0.000000 -0.000000 3.451683 4.257301 -11.406562 0.000000 0.000000 0.000000 -55.761545 -33.679349 -50.844874 0.000176 -80.674165 0.000175 -57.419263 24.773808 37.437981 -14.557464 10.837981 12.229965 0.749477 -4.258146 13.305418 -10.783703 -23.179379 -4.132406 0.000005 -0.000001 0.000001 -0.809528 2.578154 -31.496441 3.095873 5.163793 -61.866966 0.503788 2.378653 -23.913131 0.000000 -0.000001 0.000001 -2.430844 1.729223 -41.460925 2.952344 5.084721 -60.259931 1.321765 3.707977 -39.227853 -0.000000 0.000000 0.000001 -6.054132 -0.166587 -49.857584 3.046246 5.137042 -61.313946 0.351713 2.001100 -19.935147 0.000002 0.000001 0.000002 -8.298303 -6.522652 -38.520160 2.848770 5.024404 -59.084394 0.876775 3.084713 -31.727516 -0.000000 -0.000001 -0.000002 -14.702144 2.142281 -4.298178 0.000000 0.000000 0.000000 72.738660 139.648982 -53.739020 -0.000004 28.981988 0.000005 -47.783423 -6.248425 -31.304188 8.377126 -4.904148 11.021992 21.620192 -18.183905 -18.379213 -0.702858 -49.821203 -32.535125 -0.000001 0.000000 -0.000001 0.558924 -4.406583 25.436652 1.653019 -3.560366 49.799104 1.737731 -3.630054 51.149231 -0.000001 -0.000001 0.000000 10.969815 -12.875583 52.800815 6.387584 -4.324410 111.833679 0.247372 -1.499119 18.739128 0.000002 -0.000000 0.000000 3.705077 -7.151342 57.622440 5.328209 -4.608687 98.293423 1.627360 -3.538510 49.383989 0.000001 0.000001 -0.000000 0.474815 -5.172981 58.987672 3.194314 -4.421936 71.674141 1.771416 -3.656900 51.679564 -0.000000 -0.000000 0.000001 -75.395624 -4.427926 11.292276 58.295924 -8.670001 1.158867 10.960291 -1.909956 -15.781582 -1.451063 -0.039407 1.555314 -0.000001 0.000001 -0.000001 -45.462777 -7.332182 -14.980628 55.913793 -8.539032 7.067064 -14.975818 -19.553732 14.416497 -4.032531 -0.000010 0.000002 0.000000 0.000000 -0.000000 
-2.395386 97.483635 -9.248455 23.281062 -45.510531 8.284159 1.055482 7.731932 1.012595 -1.289597 4.928869 -2.265305 0.000000 0.000000 0.000000 -1.295694 0.217592 1.919091 11.325041 6.588901 -4.114612 -2.085917 19.014977 8.543328 -0.000000 -0.000000 0.000000 3.505656 4.264406 -11.583826 0.000000 0.000000 0.000000 -56.751871 -34.575497 -51.320880 0.000072 -79.627636 0.000058 -56.773229 24.062587 36.543370 -14.557457 10.837981 12.229963 0.749481 -4.258147 13.305417 -10.783707 -23.179379 -4.132405 0.000002 -0.000001 0.000001 -0.809528 2.578154 -31.496451 3.095874 5.163792 -61.866966 0.503787 2.378652 -23.913131 -0.000000 0.000000 -0.000003 -2.430844 1.729224 -41.460925 2.952343 5.084722 -60.259931 1.321765 3.707977 -39.227856 0.000000 -0.000000 0.000001 -6.054129 -0.166586 -49.857587 3.046245 5.137045 -61.313939 0.351713 2.001099 -19.935147 0.000000 0.000000 -0.000000 -8.298303 -6.522651 -38.520167 2.848771 5.024400 -59.084401 0.876775 3.084713 -31.727513 -0.000001 -0.000001 -0.000002 -14.671332 2.216724 -4.184591 0.000000 0.000000 0.000000 73.273730 139.812948 -54.505384 -0.000011 29.166171 0.000016 -46.933536 -5.789911 -31.371793 8.377126 -4.904147 11.021994 21.620195 -18.183903 -18.379216 -0.702854 -49.821206 -32.535131 0.000001 0.000000 0.000000 0.558924 -4.406583 25.436658 1.653018 -3.560365 49.799104 1.737731 -3.630054 51.149231 -0.000000 0.000000 -0.000003 10.969813 -12.875582 52.800815 6.387583 -4.324407 111.833679 0.247373 -1.499117 18.739124 -0.000002 0.000000 -0.000001 3.705076 -7.151341 57.622447 5.328209 -4.608687 98.293430 1.627359 -3.538512 49.383992 0.000000 -0.000000 -0.000001 0.474815 -5.172981 58.987672 3.194314 -4.421935 71.674141 1.771415 -3.656902 51.679561 0.000000 -0.000000 0.000000 -75.438681 -1.989292 10.288879 61.338568 -8.420971 -0.158150 9.709326 -5.471366 -18.227912 -4.631267 -0.381801 4.701300 0.000000 0.000001 0.000000 -47.971919 -8.444883 -14.030645 55.554658 -8.852416 8.858375 -14.135872 -16.524021 11.469350 -5.043911 -0.000011 -0.000002 -0.000000 0.000000 0.000000 
-2.251198 98.237778 -13.226837 25.252779 -46.897134 9.419634 0.918432 8.609200 1.392118 -1.320866 5.331381 -2.300519 0.000000 0.000000 0.000000 -1.329634 0.607863 1.876774 11.123529 6.435098 -4.023547 -2.350636 18.589413 8.709352 0.000000 -0.000000 0.000001 3.596422 4.391563 -11.859935 0.000000 0.000000 0.000000 -57.750855 -35.526208 -51.867548 0.000148 -78.626897 0.000115 -56.281227 23.486046 35.784884 -14.557461 10.837981 12.229967 0.749484 -4.258145 13.305417 -10.783707 -23.179381 -4.132407 -0.000000 0.000000 -0.000000 -0.809528 2.578154 -31.496447 3.095873 5.163792 -61.866959 0.503788 2.378653 -23.913131 -0.000000 0.000000 -0.000006 -2.430844 1.729224 -41.460922 2.952345 5.084722 -60.259931 1.321766 3.707978 -39.227856 -0.000000 -0.000001 0.000001 -6.054130 -0.166586 -49.857584 3.046247 5.137044 -61.313939 0.351712 2.001098 -19.935148 -0.000000 0.000001 0.000002 -8.298303 -6.522651 -38.520163 2.848769 5.024401 -59.084401 0.876774 3.084711 -31.727513 -0.000001 0.000001 0.000002 -14.638250 2.328212 -4.086764 0.000000 0.000000 0.000000 73.784853 139.877520 -55.250975 0.000007 29.445512 -0.000007 -46.271718 -5.529264 -31.487940 8.377125 -4.904148 11.021990 21.620192 -18.183907 -18.379213 -0.702858 -49.821210 -32.535125 -0.000001 0.000000 0.000000 0.558924 -4.406582 25.436658 1.653018 -3.560365 49.799107 1.737731 -3.630054 51.149231 0.000001 0.000000 -0.000001 10.969812 -12.875581 52.800815 6.387583 -4.324410 111.833672 0.247372 -1.499119 18.739126 -0.000000 -0.000001 0.000000 3.705076 -7.151340 57.622440 5.328209 -4.608688 98.293430 1.627361 -3.538511 49.383989 0.000000 0.000000 0.000000 0.474815 -5.172981 58.987672 3.194314 -4.421935 71.674141 1.771415 -3.656901 51.679557 0.000002 0.000000 0.000000 -74.820132 -0.032323 9.358341 62.845739 -8.254262 -1.153419 10.113201 -9.612498 -19.893491 -7.413509 -0.936831 7.155862 0.000001 -0.000002 0.000000 -50.108532 -9.873943 -13.129226 55.153986 -9.296168 10.147626 -13.801760 -12.606048 11.573300 -6.474008 -0.000044 -0.000005 0.000000 0.000000 -0.000000 
